<?xml version="1.0" encoding="utf-8"?>
<!-- Generate more at customizr.net -->
<!DOCTYPE svg PUBLIC "-//W3C//DTD SVG 1.1//EN" "http://www.w3.org/Graphics/SVG/1.1/DTD/svg11.dtd">
<svg class="social-icon" version="1.1" xmlns="http://www.w3.org/2000/svg" xmlns:xlink="http://www.w3.org/1999/xlink">
	<defs>
	<symbol id="android" viewBox="0 0 100 100" style="height: 27px; width: 27px;">
	<rect class="outer-shape" x="0" y="0" width="100" height="100" rx="20" ry="20" style="opacity: 1; fill: rgb(237, 84, 142);"></rect>
	<path class="inner-shape" style="opacity: 1; fill: rgb(247, 247, 247);" transform="translate(13,13) scale(0.74)" d="M86.75,31.625c-3.369,0-6.125,2.757-6.125,6.125v24.5c0,3.369,2.756,6.125,6.125,6.125c3.369,0,6.125-2.756,6.125-6.125 v-24.5C92.875,34.381,90.118,31.625,86.75,31.625z M13.25,31.625c-3.369,0-6.125,2.757-6.125,6.125v24.5 c0,3.369,2.757,6.125,6.125,6.125s6.125-2.756,6.125-6.125v-24.5C19.375,34.381,16.618,31.625,13.25,31.625z M22.438,71.437 c0,5.074,4.113,9.188,9.187,9.188h3.062v12.25c0,3.369,2.757,6.125,6.125,6.125c3.368,0,6.125-2.756,6.125-6.125v-12.25h6.125v12.25 c0,3.369,2.756,6.125,6.125,6.125c3.369,0,6.125-2.756,6.125-6.125v-12.25h3.062c5.074,0,9.187-4.113,9.187-9.188V37.75H22.438 V71.437z M61.35,9.565l3.876-7.446c0.193-0.373,0.048-0.838-0.325-1.033c-0.373-0.195-0.838-0.048-1.034,0.325L59.933,8.97 C56.852,7.779,53.503,7.125,50,7.125S43.149,7.78,40.067,8.97l-3.935-7.559c-0.194-0.373-0.659-0.52-1.033-0.325 s-0.52,0.659-0.325,1.033l3.876,7.446c-8.674,3.926-14.953,12.21-16.042,22.06h54.784C76.303,21.775,70.025,13.49,61.35,9.565 L61.35,9.565z M37.75,26.878c-2.453,0-4.44-1.988-4.44-4.44s1.988-4.44,4.44-4.44s4.44,1.988,4.44,4.44 C42.19,24.89,40.202,26.878,37.75,26.878z M62.25,26.878c-2.453,0-4.44-1.988-4.44-4.44s1.988-4.44,4.44-4.44s4.44,1.988,4.44,4.44 C66.69,24.89,64.702,26.878,62.25,26.878z"></path>
</symbol>

<symbol id="apple" class="social-icon" viewBox="0 0 100 100" style="height: 27px; width: 27px;">
	<rect class="outer-shape" x="0" y="0" width="100" height="100" rx="20" ry="20" style="opacity: 1; fill: rgb(237, 84, 142);"></rect>
	<path class="inner-shape" style="opacity: 1; fill: rgb(247, 247, 247);" transform="translate(13,13) scale(0.74)" d="M76.749,53.071c-0.123-12.411,10.122-18.363,10.579-18.659c-5.757-8.424-14.724-9.578-17.919-9.711 c-7.631-0.772-14.891,4.493-18.764,4.493c-3.863,0-9.84-4.379-16.169-4.264c-8.318,0.123-15.988,4.836-20.271,12.286 c-8.643,14.997-2.213,37.214,6.21,49.376c4.116,5.954,9.024,12.64,15.468,12.401c6.205-0.248,8.553-4.015,16.054-4.015 c7.503,0,9.611,4.015,16.179,3.893c6.678-0.124,10.908-6.067,14.996-12.039c4.727-6.907,6.673-13.594,6.788-13.937 C89.752,72.827,76.879,67.896,76.749,53.071z M64.409,16.649C67.829,12.5,70.138,6.743,69.508,1 c-4.926,0.201-10.899,3.282-14.434,7.422c-3.172,3.673-5.948,9.534-5.204,15.163C55.37,24.013,60.985,20.789,64.409,16.649 L64.409,16.649z"></path>
</symbol>
<symbol id="facebook" class="social-icon" viewBox="0 0 100 100" style="height: 27px; width: 27px;">
	<rect class="outer-shape" x="0" y="0" width="100" height="100" rx="20" ry="20" style="opacity: 1; fill: rgb(237, 84, 142);"></rect>
	<path class="inner-shape" style="opacity: 1; fill: rgb(247, 247, 247);" transform="translate(13,13) scale(0.74)" d="M82.667,1H17.335C8.351,1,1,8.351,1,17.336v65.329c0,8.99,7.351,16.335,16.334,16.335h65.332 C91.652,99.001,99,91.655,99,82.665V17.337C99,8.353,91.652,1.001,82.667,1L82.667,1z M84.318,50H68.375v42.875H50V50h-8.855V35.973 H50v-9.11c0-12.378,5.339-19.739,19.894-19.739h16.772V22.3H72.967c-4.066-0.007-4.57,2.12-4.57,6.078l-0.023,7.594H86.75 l-2.431,14.027V50z"></path>
</symbol>
<symbol id="instagram" class="social-icon" viewBox="0 0 100 100" style="height: 27px; width: 27px;">
	<rect class="outer-shape" x="0" y="0" width="100" height="100" rx="20" ry="20" style="opacity: 1; fill: rgb(237, 84, 142);"></rect>
	<path class="inner-shape" style="opacity: 1; fill: rgb(247, 247, 247);" transform="translate(13,13) scale(0.74)" d="M88.2,1H11.8C5.85,1,1.026,5.827,1.026,11.781V88.22C1.026,94.174,5.85,99,11.8,99H88.2c5.95,0,10.774-4.826,10.774-10.78 V11.781C98.973,5.827,94.149,1,88.2,1z M49.946,31.184c10.356,0,18.752,8.4,18.752,18.762c0,10.361-8.396,18.761-18.752,18.761 s-18.752-8.4-18.752-18.761S39.589,31.184,49.946,31.184z M87.513,83.615c0,2.165-1.753,3.919-3.917,3.919H16.341 c-2.164,0-3.917-1.755-3.917-3.919v-41.06h8.508c-0.589,2.35-0.904,4.807-0.904,7.34c0,16.612,13.459,30.079,30.063,30.079 s30.063-13.466,30.063-30.079c0-2.533-0.315-4.99-0.904-7.34h8.263L87.513,83.615L87.513,83.615z M87.764,27.124 c0,2.165-1.754,3.919-3.918,3.919H72.723c-2.164,0-3.917-1.755-3.917-3.919v-11.13c0-2.165,1.754-3.919,3.917-3.919h11.123 c2.165,0,3.918,1.755,3.918,3.919V27.124z"></path>
</symbol>
<symbol id="linkedin" class="social-icon" viewBox="0 0 100 100" style="height: 27px; width: 27px;">
	<rect class="outer-shape" x="0" y="0" width="100" height="100" rx="20" ry="20" style="opacity: 1; fill: rgb(237, 84, 142);"></rect>
	<path class="inner-shape" style="opacity: 1; fill: rgb(247, 247, 247);" transform="translate(13,13) scale(0.74)" d="M82.539,1H17.461C8.408,1,1,8.408,1,17.461v65.078C1,91.592,8.408,99,17.461,99h65.078C91.592,99,99,91.592,99,82.539 V17.461C99,8.408,91.592,1,82.539,1z M37.75,80.625H25.5V37.75h12.25V80.625z M31.625,31.625c-3.383,0-6.125-2.742-6.125-6.125 s2.742-6.125,6.125-6.125s6.125,2.742,6.125,6.125S35.008,31.625,31.625,31.625z M80.625,80.625h-12.25v-24.5 c0-3.383-2.742-6.125-6.125-6.125s-6.125,2.742-6.125,6.125v24.5h-12.25V37.75h12.25v7.606c2.526-3.47,6.389-7.606,10.719-7.606 c7.612,0,13.782,6.856,13.782,15.312L80.625,80.625L80.625,80.625z"></path>
</symbol>
<symbol id="pinterest" class="social-icon" viewBox="0 0 100 100" style="height: 27px; width: 27px;">
	<rect class="outer-shape" x="0" y="0" width="100" height="100" rx="20" ry="20" style="opacity: 1; fill: rgb(237, 84, 142);"></rect>
	<path class="inner-shape" style="opacity: 1; fill: rgb(247, 247, 247);" transform="translate(13,13) scale(0.74)" d="M50.001,1.489C22.94,1.489,0.999,23.208,0.999,50c0,19.864,12.066,36.929,29.331,44.432 c-0.138-3.388-0.024-7.454,0.853-11.14c0.942-3.939,6.305-26.433,6.305-26.433s-1.566-3.098-1.566-7.676 c0-7.188,4.209-12.558,9.451-12.558c4.457,0,6.61,3.314,6.61,7.283c0,4.435-2.858,11.071-4.327,17.215 c-1.228,5.146,2.606,9.343,7.734,9.343c9.285,0,15.537-11.805,15.537-25.791c0-10.633-7.233-18.59-20.39-18.59 c-14.864,0-24.124,10.974-24.124,23.232c0,4.226,1.258,7.207,3.23,9.515c0.906,1.06,1.032,1.488,0.704,2.704 c-0.235,0.893-0.775,3.042-0.999,3.894c-0.326,1.229-1.332,1.668-2.453,1.214C20.05,63.877,16.861,56.455,16.861,48.11 c0-13.781,11.739-30.304,35.022-30.304c18.708,0,31.021,13.403,31.021,27.79c0,19.029-10.687,33.247-26.44,33.247 c-5.289,0-10.266-2.831-11.971-6.047c0,0-2.845,11.177-3.448,13.335c-1.039,3.74-3.072,7.478-4.932,10.392 C40.52,97.81,45.175,98.511,50,98.511c27.059,0,49-21.719,49-48.511S77.06,1.489,50.001,1.489z"></path>
</symbol>
<symbol id="twitter" class="social-icon" viewBox="0 0 100 100" style="height: 27px; width: 27px;">
	<rect class="outer-shape" x="0" y="0" width="100" height="100" rx="20" ry="20" style="opacity: 1; fill: rgb(237, 84, 142);"></rect>
	<path class="inner-shape" style="opacity: 1; fill: rgb(247, 247, 247);" transform="translate(13,13) scale(0.74)" d="M99.001,19.428c-3.606,1.608-7.48,2.695-11.547,3.184c4.15-2.503,7.338-6.466,8.841-11.189 c-3.885,2.318-8.187,4-12.768,4.908c-3.667-3.931-8.893-6.387-14.676-6.387c-11.104,0-20.107,9.054-20.107,20.223 c0,1.585,0.177,3.128,0.52,4.609c-16.71-0.845-31.525-8.895-41.442-21.131C6.092,16.633,5.1,20.107,5.1,23.813 c0,7.017,3.55,13.208,8.945,16.834c-3.296-0.104-6.397-1.014-9.106-2.529c-0.002,0.085-0.002,0.17-0.002,0.255 c0,9.799,6.931,17.972,16.129,19.831c-1.688,0.463-3.463,0.71-5.297,0.71c-1.296,0-2.555-0.127-3.783-0.363 c2.559,8.034,9.984,13.882,18.782,14.045c-6.881,5.424-15.551,8.657-24.971,8.657c-1.623,0-3.223-0.096-4.796-0.282 c8.898,5.738,19.467,9.087,30.82,9.087c36.982,0,57.206-30.817,57.206-57.543c0-0.877-0.02-1.748-0.059-2.617 C92.896,27.045,96.305,23.482,99.001,19.428z"></path>
</symbol>
<symbol id="youtube" class="social-icon" viewBox="0 0 100 100" style="height: 27px; width: 27px;">
	<rect class="outer-shape" x="0" y="0" width="100" height="100" rx="20" ry="20" style="opacity: 1; fill: rgb(237, 84, 142);"></rect>
	<path class="inner-shape" style="opacity: 1; fill: rgb(247, 247, 247);" transform="translate(13,13) scale(0.74)" d="M97.284,26.359c-1-5.352-5.456-9.346-10.574-9.839c-12.221-0.784-24.488-1.42-36.731-1.428 c-12.244-0.007-24.464,0.616-36.687,1.388c-5.137,0.497-9.592,4.47-10.589,9.842C1.567,34.058,1,41.869,1,49.678 s0.568,15.619,1.703,23.355c0.996,5.372,5.451,9.822,10.589,10.314c12.226,0.773,24.439,1.561,36.687,1.561 c12.239,0,24.515-0.688,36.731-1.479c5.118-0.497,9.574-5.079,10.574-10.428C98.43,65.278,99,57.477,99,49.676 C99,41.88,98.428,34.083,97.284,26.359z M38.89,63.747V35.272l26.52,14.238L38.89,63.747z"></path>
</symbol>
</defs>
</svg>

