<?xml version="1.0" encoding="utf-8"?>
<!-- Generator: Adobe Illustrator 17.0.0, SVG Export Plug-In . SVG Version: 6.00 Build 0)  -->
<!DOCTYPE svg PUBLIC "-//W3C//DTD SVG 1.1//EN" "http://www.w3.org/Graphics/SVG/1.1/DTD/svg11.dtd">
<svg version="1.1" xmlns="http://www.w3.org/2000/svg" xmlns:xlink="http://www.w3.org/1999/xlink" x="0px" y="0px" width="67px"
	 height="72.5px" viewBox="17.5 0 67 72.5" enable-background="new 17.5 0 67 72.5" xml:space="preserve">
<g id="Layer_2">
</g>
<g id="Layer_1">
	<path fill="#F6A9C6" d="M48.009,20.935c0,0-0.042-0.001-0.124-0.002c-0.081-0.002-0.204-0.001-0.357-0.016
		c-0.306-0.028-0.766-0.053-1.329-0.144c-0.567-0.085-1.244-0.221-2.013-0.421c-0.384-0.1-0.786-0.226-1.213-0.36
		c-0.423-0.141-0.863-0.307-1.324-0.488c-0.455-0.191-0.925-0.407-1.413-0.645c-0.481-0.25-0.974-0.529-1.481-0.843
		c-0.499-0.324-1.004-0.69-1.521-1.108c-0.51-0.424-1.011-0.922-1.51-1.507c-0.25-0.296-0.487-0.618-0.711-0.984
		c-0.225-0.361-0.441-0.756-0.628-1.203c-0.387-0.873-0.619-1.995-0.539-3.176c0.044-0.589,0.167-1.177,0.353-1.728
		c0.196-0.55,0.457-1.041,0.74-1.493l0.219-0.324l0.056-0.08l0.077-0.102l0.068-0.091l0.068-0.09
		c0.022-0.03,0.042-0.057,0.087-0.111l0.231-0.283c0.296-0.35,0.59-0.665,0.963-0.982c0.721-0.623,1.636-1.237,2.794-1.594
		c0.573-0.174,1.199-0.266,1.814-0.271c0.616-0.005,1.221,0.081,1.772,0.23c0.552,0.147,1.05,0.356,1.489,0.601
		c0.44,0.242,0.827,0.51,1.174,0.785c0.697,0.548,1.227,1.143,1.671,1.732c0.226,0.293,0.424,0.587,0.613,0.877
		c0.184,0.291,0.347,0.587,0.499,0.876c0.302,0.58,0.566,1.142,0.769,1.704c0.424,1.111,0.69,2.173,0.869,3.151
		c0.178,0.98,0.263,1.879,0.293,2.676c0.03,0.797,0.01,1.49-0.036,2.06c-0.035,0.568-0.12,1.019-0.158,1.321
		c-0.021,0.151-0.038,0.327-0.053,0.406c-0.016,0.079-0.012,0.177-0.012,0.177l-0.373,0.076c0,0-0.046-0.205-0.109-0.481
		c-0.066-0.275-0.167-0.707-0.306-1.216c-0.138-0.509-0.319-1.138-0.549-1.834c-0.23-0.696-0.516-1.479-0.853-2.313
		c-0.34-0.833-0.749-1.721-1.25-2.616c-0.504-0.89-1.099-1.801-1.84-2.615c-0.37-0.406-0.779-0.787-1.23-1.107
		c-0.451-0.316-0.947-0.573-1.473-0.697c-0.524-0.126-1.07-0.108-1.583,0.061c-0.515,0.164-0.987,0.477-1.41,0.853
		c-0.211,0.188-0.408,0.4-0.599,0.612c-0.091,0.107-0.183,0.213-0.277,0.336l-0.07,0.089l-0.03,0.039l-0.03,0.042l-0.12,0.17
		c-0.307,0.461-0.507,0.975-0.564,1.506c-0.051,0.532,0.031,1.075,0.219,1.586c0.181,0.513,0.459,0.995,0.767,1.444
		c0.629,0.896,1.4,1.661,2.17,2.335c0.774,0.673,1.557,1.256,2.299,1.767c1.49,1.013,2.784,1.79,3.709,2.296
		c0.924,0.51,1.466,0.77,1.466,0.77L48.009,20.935z"/>
	<path fill="#F6A9C6" d="M56.156,21.766c0,0,0.041,0.011,0.119,0.033c0.079,0.02,0.196,0.055,0.347,0.084
		c0.302,0.059,0.75,0.164,1.316,0.234c0.568,0.077,1.256,0.137,2.05,0.16c0.397,0.012,0.818,0.003,1.265-0.006
		c0.447-0.018,0.915-0.054,1.408-0.098c0.49-0.056,1.002-0.131,1.538-0.224c0.531-0.105,1.083-0.235,1.658-0.395
		c0.57-0.17,1.157-0.381,1.77-0.639c0.608-0.264,1.229-0.601,1.871-1.024c0.324-0.215,0.641-0.457,0.959-0.745
		c0.317-0.284,0.635-0.602,0.939-0.979c0.617-0.73,1.153-1.742,1.406-2.899c0.123-0.577,0.17-1.176,0.145-1.758
		c-0.034-0.583-0.147-1.128-0.293-1.641l-0.12-0.372l-0.031-0.093l-0.045-0.119l-0.04-0.106l-0.041-0.107
		c-0.013-0.034-0.024-0.066-0.051-0.131l-0.143-0.337c-0.187-0.419-0.381-0.804-0.649-1.212c-0.519-0.801-1.224-1.645-2.236-2.313
		c-0.503-0.328-1.076-0.59-1.666-0.767c-0.591-0.178-1.196-0.264-1.766-0.276c-0.571-0.014-1.108,0.047-1.597,0.16
		c-0.49,0.109-0.936,0.258-1.347,0.425c-0.822,0.331-1.499,0.753-2.089,1.195C60.535,8.036,60.263,8.263,60,8.488
		c-0.259,0.227-0.499,0.466-0.724,0.701c-0.452,0.473-0.863,0.939-1.215,1.421c-0.718,0.949-1.27,1.893-1.716,2.782
		c-0.445,0.89-0.779,1.73-1.03,2.487c-0.253,0.756-0.426,1.427-0.542,1.987c-0.126,0.555-0.17,1.013-0.218,1.313
		c-0.022,0.151-0.055,0.325-0.064,0.404c-0.007,0.079-0.039,0.173-0.039,0.173l0.337,0.178c0,0,0.101-0.184,0.239-0.431
		c0.139-0.245,0.359-0.632,0.634-1.081c0.275-0.45,0.625-1.003,1.04-1.607c0.416-0.604,0.91-1.276,1.467-1.981
		c0.559-0.704,1.2-1.443,1.933-2.161c0.733-0.713,1.559-1.421,2.499-1.995c0.468-0.286,0.967-0.539,1.49-0.718
		c0.521-0.178,1.07-0.285,1.609-0.257c0.538,0.027,1.058,0.197,1.501,0.502c0.448,0.302,0.816,0.734,1.115,1.214
		c0.15,0.239,0.28,0.498,0.404,0.755c0.059,0.128,0.116,0.256,0.172,0.401l0.043,0.105l0.017,0.045l0.016,0.049l0.068,0.198
		c0.167,0.529,0.214,1.078,0.119,1.604c-0.1,0.524-0.33,1.022-0.654,1.461c-0.319,0.442-0.719,0.827-1.141,1.171
		c-0.854,0.685-1.808,1.204-2.736,1.635c-0.932,0.43-1.847,0.769-2.701,1.052c-1.714,0.556-3.174,0.939-4.204,1.166
		c-1.03,0.231-1.622,0.328-1.622,0.328L56.156,21.766z"/>
	<path fill="#FFFFFF" d="M48.096,24.815h7.641c0,0,0.159-3.741-3.741-3.741S48.096,24.815,48.096,24.815z"/>
	<rect x="60.185" y="26.296" fill="#FFFFFF" width="19.259" height="14.074"/>
	<rect x="23.148" y="26.296" fill="#FFFFFF" width="20.741" height="14.074"/>
	<rect x="45.37" y="25.556" fill="#F6A9C6" width="13.333" height="40.741"/>
	<rect x="26.111" y="41.852" fill="#FFFFFF" width="17.778" height="24.444"/>
	<rect x="60.185" y="41.852" fill="#FFFFFF" width="15.556" height="24.444"/>
</g>
</svg>
