<?xml version="1.0" encoding="utf-8"?>
<!-- Generator: Adobe Illustrator 17.0.0, SVG Export Plug-In . SVG Version: 6.00 Build 0)  -->
<!DOCTYPE svg PUBLIC "-//W3C//DTD SVG 1.1//EN" "http://www.w3.org/Graphics/SVG/1.1/DTD/svg11.dtd">
<svg version="1.1" id="Layer_1" xmlns="http://www.w3.org/2000/svg" xmlns:xlink="http://www.w3.org/1999/xlink" x="0px" y="0px"
	 width="100px" height="75.388px" viewBox="0 0 100 75.388" enable-background="new 0 0 100 75.388" xml:space="preserve">
<g>
	<path d="M88.009,27.276L52.07,2.119c-0.38-0.266-0.885-0.266-1.265,0l-35.93,25.158c-0.239,0.169-0.401,0.424-0.453,0.712
		c-0.05,0.288,0.016,0.584,0.183,0.824l4.893,6.988c0.216,0.307,0.556,0.47,0.905,0.47c0.218,0,0.439-0.064,0.631-0.199
		l30.408-21.295l30.407,21.295c0.502,0.35,1.188,0.227,1.536-0.271l4.894-6.988c0.167-0.239,0.233-0.536,0.182-0.824
		C88.412,27.702,88.249,27.445,88.009,27.276z"/>
	<path d="M79.079,38.46L52.074,19.549c-0.379-0.265-0.885-0.265-1.264,0L23.661,38.561c-0.295,0.205-0.47,0.543-0.47,0.904V68.69
		c0,0.607,0.494,1.102,1.104,1.102h18.89c0.609,0,1.103-0.495,1.103-1.102V43.222h14.311V68.69c0,0.607,0.493,1.102,1.103,1.102
		h18.747c0.61,0,1.101-0.495,1.101-1.102V39.363C79.549,39.003,79.375,38.667,79.079,38.46z"/>
	<path d="M69.27,10.387l8.453,5.919c0.19,0.132,0.41,0.199,0.633,0.199c0.175,0,0.351-0.041,0.51-0.124
		c0.363-0.19,0.593-0.567,0.593-0.979V2.913c0-0.609-0.494-1.102-1.103-1.102h-8.454c-0.609,0-1.102,0.494-1.102,1.102v6.571
		C68.798,9.842,68.973,10.18,69.27,10.387z"/>
</g>
</svg>
