<svg xmlns="http://www.w3.org/2000/svg" xmlns:xlink="http://www.w3.org/1999/xlink" version="1.1" id="Layer_1" x="0px" y="0px" width="100px" height="100px" viewBox="5.0 -10.0 100.0 135.0" enable-background="new 0 0 100 100" xml:space="preserve">
<path fill="#000000" d="M77.5,32.5c0-1.381-1.119-2.5-2.5-2.5h-5c-1.381,0-2.5,1.119-2.5,2.5S68.619,35,70,35h5  C76.381,35,77.5,33.881,77.5,32.5z"/>
<path fill="#000000" d="M65.449,81h-9.437c-1.381,0-2.5,1.119-2.5,2.5s1.119,2.5,2.5,2.5h9.437c1.381,0,2.5-1.119,2.5-2.5  S66.83,81,65.449,81z"/>
<path fill="#000000" d="M91.5,65.275c-1.381,0-2.5,1.119-2.5,2.5v9.436c0,1.381,1.119,2.5,2.5,2.5s2.5-1.119,2.5-2.5v-9.436  C94,66.395,92.881,65.275,91.5,65.275z"/>
<path fill="#000000" d="M75.829,86h9.437c1.381,0,2.5-1.119,2.5-2.5s-1.119-2.5-2.5-2.5h-9.437c-1.381,0-2.5,1.119-2.5,2.5  S74.448,86,75.829,86z"/>
<path fill="#000000" d="M86.5,30H85c-1.381,0-2.5,1.119-2.5,2.5S83.619,35,85,35h1.5c1.379,0,2.5,1.122,2.5,2.579  c0,1.381,1.119,2.46,2.5,2.46S94,38.881,94,37.5C94,33.364,90.636,30,86.5,30z"/>
<path fill="#000000" d="M36.196,81c-1.381,0-2.5,1.119-2.5,2.5s1.119,2.5,2.5,2.5h9.437c1.381,0,2.5-1.119,2.5-2.5  s-1.119-2.5-2.5-2.5H36.196z"/>
<path fill="#000000" d="M91.5,45.459c-1.381,0-2.5,1.119-2.5,2.5v9.437c0,1.381,1.119,2.5,2.5,2.5s2.5-1.119,2.5-2.5v-9.437  C94,46.578,92.881,45.459,91.5,45.459z"/>
<path fill="#000000" d="M26,78.5c0-1.381-1.119-2.5-2.5-2.5S21,77.119,21,78.5c0,2.568,1.292,4.93,3.456,6.317  c0.418,0.269,0.886,0.396,1.348,0.396c0.823,0,1.629-0.406,2.106-1.15c0.745-1.162,0.407-2.709-0.755-3.454  C26.432,80.145,26,79.356,26,78.5z"/>
<path fill="#000000" d="M25.25,56.463c0-3.857-3.139-6.995-6.996-6.995c-3.858,0-6.997,3.138-6.997,6.995  c0,3.858,3.139,6.997,6.997,6.997C22.111,63.46,25.25,60.321,25.25,56.463z M14.104,56.463c0-2.288,1.861-4.149,4.15-4.149  c2.288,0,4.149,1.861,4.149,4.149c0,2.289-1.861,4.15-4.149,4.15C15.965,60.613,14.104,58.752,14.104,56.463z"/>
<path fill="#000000" d="M30.229,56.463c0-0.61-0.061-1.207-0.149-1.795l3.135-2.535l0.066,0.081  c0.009-0.007,0.165-0.138,0.419-0.353c2.636,2.666,5.446,5.23,8.379,7.841C49.152,66,55.402,69,60.653,69c0,0,0,0,0.002,0  c3.738,0,5.928-1.438,6.901-2.41c2.234-2.233,3.221-3.093,3.262-3.137l1.06-1.119l-25.66-20.518l25.66-20.518l-1.06-1.123  c-0.041-0.043-1.027-1.088-3.262-3.322c-0.974-0.972-3.163-2.604-6.903-2.604c-5.251,0-11.5,3.194-18.574,9.492  c-2.524,2.248-4.959,4.543-7.275,6.846l-0.019-0.019c-0.319,0.325-0.644,0.662-0.971,1.005c-0.061,0.061-0.122,0.121-0.182,0.181  l-3.545-2.836c0.084-0.571,0.142-1.15,0.142-1.745c0-6.604-5.371-11.976-11.976-11.976c-6.604,0-11.977,5.373-11.977,11.976  S11.65,39.15,18.254,39.15c1.321,0,2.59-0.224,3.779-0.621c0.521,0.717,1.35,1.822,2.535,3.287  c-0.608,0.702-0.979,1.135-0.994,1.153l0.047,0.041c-0.695,0.888-1.222,1.593-1.589,2.098c-1.19-0.397-2.458-0.621-3.778-0.621  c-6.604,0-11.977,5.373-11.977,11.976c0,6.604,5.373,11.977,11.977,11.977C24.858,68.439,30.229,63.067,30.229,56.463z   M67.674,62.531c-0.515,0.525-1.219,1.058-2.13,1.97C64.884,65.162,63.368,66,60.655,66c-0.002,0-0.002,0-0.002,0  c-3.117,0-8.54-1.251-16.682-8.5c-2.841-2.529-5.557-4.936-8.111-7.483c2.021-1.673,4.987-4.081,8.035-6.484L67.674,62.531z   M35.708,33.712c2.604-2.638,5.372-5.274,8.264-7.849c8.143-7.249,13.566-8.773,16.682-8.773c2.715,0,4.23,1.104,4.891,1.765  c0.911,0.912,1.615,1.615,2.13,2.141L42.428,41.162l-0.034-0.046c-3.861,3.039-7.636,6.158-9.583,7.782l-3.349,2.677  c-0.304-0.438-0.688-0.972-1.134-1.562c-0.736-1.146-1.661-2.154-2.729-2.989c-0.327-0.264-0.646-0.502-0.935-0.689  c0.508-0.683,1.238-1.635,2.175-2.791C28.646,41.459,32.377,37.208,35.708,33.712z M29.462,32.063l2.225,1.778  c-1.884,2.04-3.746,4.13-5.215,5.798c-0.762-0.951-1.368-1.744-1.808-2.335c0.288-0.188,0.607-0.426,0.935-0.69  c1.068-0.835,1.993-1.844,2.729-2.989C28.773,33.035,29.158,32.5,29.462,32.063z M23.82,34.394  c-0.584,0.452-1.221,0.836-1.904,1.137l-1.28,0.447c-0.762,0.207-1.557,0.326-2.382,0.326c-5.035,0-9.13-4.096-9.13-9.13  s4.095-9.13,9.13-9.13s9.13,4.096,9.13,9.13c0,1.769-0.514,3.417-1.39,4.818c-0.246,0.326-0.506,0.663-0.796,1.023  C24.733,33.594,24.258,34.039,23.82,34.394z M9.124,56.463c0-5.033,4.095-9.13,9.13-9.13c0.837,0,1.646,0.123,2.419,0.336  l1.204,0.418c0.771,0.334,1.486,0.771,2.129,1.295c0.385,0.329,0.792,0.73,1.192,1.229c0.273,0.341,0.522,0.662,0.76,0.972  c0.897,1.414,1.426,3.084,1.426,4.879c0,5.035-4.095,9.131-9.13,9.131S9.124,61.498,9.124,56.463z"/>
<path fill="#000000" d="M18.254,20.178c-3.858,0-6.997,3.139-6.997,6.996c0,3.857,3.139,6.996,6.997,6.996  c3.857,0,6.996-3.139,6.996-6.996C25.25,23.316,22.111,20.178,18.254,20.178z M18.254,31.324c-2.289,0-4.15-1.861-4.15-4.15  s1.861-4.15,4.15-4.15c2.288,0,4.149,1.861,4.149,4.15S20.542,31.324,18.254,31.324z"/>
<path fill="#000000" d="M34.023,43.775c1.308,0,2.371-1.064,2.371-2.372s-1.063-2.372-2.371-2.372c-1.309,0-2.371,1.064-2.371,2.372  S32.715,43.775,34.023,43.775z M34.023,39.981c0.784,0,1.424,0.638,1.424,1.422s-0.64,1.423-1.424,1.423  c-0.785,0-1.423-0.639-1.423-1.423S33.238,39.981,34.023,39.981z"/>
<text x="0.0" y="117.5" font-size="5.0" font-weight="bold" font-family="Helvetica Neue, Helvetica, Arial-Unicode, Arial, Sans-serif" fill="#000000">Created by NAS</text><text x="0.0" y="122.5" font-size="5.0" font-weight="bold" font-family="Helvetica Neue, Helvetica, Arial-Unicode, Arial, Sans-serif" fill="#000000">from the Noun Project</text></svg>